<svg width="800" height="500" viewBox="0 0 800 500" xmlns="http://www.w3.org/2000/svg">
  <rect width="800" height="500" fill="#020202"/>

  <!-- sidebar rail -->
  <rect x="0" y="0" width="172" height="500" fill="#0a0a0a"/>
  <rect x="172" y="0" width="1" height="500" fill="#173317"/>
  <g transform="translate(0,0)">
    <rect x="16" y="16" width="24" height="24" fill="none" stroke="#4a5a4a" stroke-width="1"/>
    <path d="M22 28 L28 28 L30 22 L33 34 L35 28 L36 28" fill="none" stroke="#39ff14" stroke-width="1.6" stroke-linecap="round" stroke-linejoin="round"/>
    <text x="48" y="32" font-family="Courier New, monospace" font-size="11" font-weight="bold" fill="#eaffea" letter-spacing="0.5">beyondlabs</text>
    <rect x="16" y="52" width="150" height="1" fill="#173317"/>
    <circle cx="26" cy="94" r="3" fill="#4a5a4a"/><text x="38" y="98" font-family="Courier New, monospace" font-size="10.5" letter-spacing="1" fill="#7a8f7a">INTAKE</text><circle cx="26" cy="128" r="3" fill="#4a5a4a"/><text x="38" y="132" font-family="Courier New, monospace" font-size="10.5" letter-spacing="1" fill="#7a8f7a">PHISHING</text><circle cx="26" cy="162" r="3" fill="#4a5a4a"/><text x="38" y="166" font-family="Courier New, monospace" font-size="10.5" letter-spacing="1" fill="#7a8f7a">SIEM</text><circle cx="26" cy="196" r="3" fill="#4a5a4a"/><text x="38" y="200" font-family="Courier New, monospace" font-size="10.5" letter-spacing="1" fill="#7a8f7a">DETECTION</text><circle cx="26" cy="230" r="3" fill="#4a5a4a"/><text x="38" y="234" font-family="Courier New, monospace" font-size="10.5" letter-spacing="1" fill="#7a8f7a">RECON</text><rect x="10" y="250" width="150" height="28" fill="#39ff14" fill-opacity="0.10"/><rect x="10" y="250" width="2" height="28" fill="#39ff14"/><circle cx="26" cy="264" r="3" fill="#39ff14"/><text x="38" y="268" font-family="Courier New, monospace" font-size="10.5" letter-spacing="1" fill="#39ff14">CASE</text><circle cx="26" cy="298" r="3" fill="#4a5a4a"/><text x="38" y="302" font-family="Courier New, monospace" font-size="10.5" letter-spacing="1" fill="#7a8f7a">SETTINGS</text>
  </g>

  <!-- topbar -->
  <rect x="172" y="0" width="628" height="42" fill="#0a0a0a" fill-opacity="0.6"/>
  <rect x="172" y="41" width="628" height="1" fill="#173317"/>
  <text x="196" y="26" font-family="Courier New, monospace" font-size="10.5" fill="#7a8f7a" letter-spacing="0.5">beyondlabs / case</text>
  <rect x="700" y="11" width="80" height="20" fill="none" stroke="#173317" stroke-width="1"/>
  <text x="712" y="25" font-family="Courier New, monospace" font-size="9.5" fill="#4a5a4a">search &#8984;k</text>

  
  <text x="196" y="80" font-family="'Courier New', monospace" font-size="11" fill="#4a5a4a" letter-spacing="1">CASE TIMELINE</text>
  <rect x="208" y="92" width="1.5" height="180" fill="#173317"/>

  <circle cx="208" cy="104" r="4" fill="#39ff14"/>
  <text x="224" y="108" font-family="'Courier New', monospace" font-size="10.5" fill="#eaffea">Artifact intake logged</text>

  <circle cx="208" cy="144" r="4" fill="#5ec8ff"/>
  <text x="224" y="148" font-family="'Courier New', monospace" font-size="10.5" fill="#eaffea">Triage findings sent to case</text>

  <circle cx="208" cy="184" r="4" fill="#ffb454"/>
  <text x="224" y="188" font-family="'Courier New', monospace" font-size="10.5" fill="#eaffea">Matched against detection rule</text>

  <circle cx="208" cy="224" r="4" fill="#8fd19e"/>
  <text x="224" y="228" font-family="'Courier New', monospace" font-size="10.5" fill="#eaffea">Marked ready for export</text>

  <rect x="196" y="256" width="580" height="1" fill="#173317"/>
  <text x="196" y="280" font-family="'Courier New', monospace" font-size="11" fill="#4a5a4a" letter-spacing="1">ANALYST NOTES</text>
  <rect x="196" y="292" width="580" height="42" fill="#0a0a0a" stroke="#173317" stroke-width="1"/>
  <text x="210" y="312" font-family="'Courier New', monospace" font-size="10.5" fill="#7a8f7a">Free-text notes, saved locally with the case.</text>
  <rect x="196" y="348" width="150" height="28" fill="#39ff14"/>
  <text x="210" y="366" font-family="'Courier New', monospace" font-size="10.5" fill="#020202">export report.md &#8594;</text>


  <text x="486" y="480" text-anchor="middle" font-family="'Courier New', monospace" font-size="10.5" fill="#4a5a4a" letter-spacing="1.5">ILLUSTRATIVE PLACEHOLDER &#183; REAL CAPTURE PENDING</text>
</svg>
