<svg width="800" height="500" viewBox="0 0 800 500" xmlns="http://www.w3.org/2000/svg">
  <rect width="800" height="500" fill="#020202"/>

  <!-- sidebar rail -->
  <rect x="0" y="0" width="172" height="500" fill="#0a0a0a"/>
  <rect x="172" y="0" width="1" height="500" fill="#173317"/>
  <g transform="translate(0,0)">
    <rect x="16" y="16" width="24" height="24" fill="none" stroke="#4a5a4a" stroke-width="1"/>
    <path d="M22 28 L28 28 L30 22 L33 34 L35 28 L36 28" fill="none" stroke="#39ff14" stroke-width="1.6" stroke-linecap="round" stroke-linejoin="round"/>
    <text x="48" y="32" font-family="Courier New, monospace" font-size="11" font-weight="bold" fill="#eaffea" letter-spacing="0.5">beyondlabs</text>
    <rect x="16" y="52" width="150" height="1" fill="#173317"/>
    <circle cx="26" cy="94" r="3" fill="#4a5a4a"/><text x="38" y="98" font-family="Courier New, monospace" font-size="10.5" letter-spacing="1" fill="#7a8f7a">INTAKE</text><rect x="10" y="114" width="150" height="28" fill="#39ff14" fill-opacity="0.10"/><rect x="10" y="114" width="2" height="28" fill="#39ff14"/><circle cx="26" cy="128" r="3" fill="#39ff14"/><text x="38" y="132" font-family="Courier New, monospace" font-size="10.5" letter-spacing="1" fill="#39ff14">PHISHING</text><circle cx="26" cy="162" r="3" fill="#4a5a4a"/><text x="38" y="166" font-family="Courier New, monospace" font-size="10.5" letter-spacing="1" fill="#7a8f7a">SIEM</text><circle cx="26" cy="196" r="3" fill="#4a5a4a"/><text x="38" y="200" font-family="Courier New, monospace" font-size="10.5" letter-spacing="1" fill="#7a8f7a">DETECTION</text><circle cx="26" cy="230" r="3" fill="#4a5a4a"/><text x="38" y="234" font-family="Courier New, monospace" font-size="10.5" letter-spacing="1" fill="#7a8f7a">RECON</text><circle cx="26" cy="264" r="3" fill="#4a5a4a"/><text x="38" y="268" font-family="Courier New, monospace" font-size="10.5" letter-spacing="1" fill="#7a8f7a">CASE</text><circle cx="26" cy="298" r="3" fill="#4a5a4a"/><text x="38" y="302" font-family="Courier New, monospace" font-size="10.5" letter-spacing="1" fill="#7a8f7a">SETTINGS</text>
  </g>

  <!-- topbar -->
  <rect x="172" y="0" width="628" height="42" fill="#0a0a0a" fill-opacity="0.6"/>
  <rect x="172" y="41" width="628" height="1" fill="#173317"/>
  <text x="196" y="26" font-family="Courier New, monospace" font-size="10.5" fill="#7a8f7a" letter-spacing="0.5">beyondlabs / triage / phishing</text>
  <rect x="700" y="11" width="80" height="20" fill="none" stroke="#173317" stroke-width="1"/>
  <text x="712" y="25" font-family="Courier New, monospace" font-size="9.5" fill="#4a5a4a">search &#8984;k</text>

  
  <text x="196" y="80" font-family="'Courier New', monospace" font-size="11" fill="#4a5a4a" letter-spacing="1">SAMPLE: CREDENTIAL LURE</text>
  <rect x="196" y="92" width="580" height="88" fill="#0a0a0a" stroke="#173317" stroke-width="1"/>
  <text x="212" y="116" font-family="'Courier New', monospace" font-size="11.5" fill="#7a8f7a">From: Security Team &lt;security-alert@example-login.com&gt;</text>
  <text x="212" y="136" font-family="'Courier New', monospace" font-size="11.5" fill="#7a8f7a">To: user@example.org</text>
  <text x="212" y="156" font-family="'Courier New', monospace" font-size="11.5" fill="#eaffea">Subject: URGENT: Password reset required within 24h</text>

  <text x="196" y="204" font-family="'Courier New', monospace" font-size="11" fill="#4a5a4a" letter-spacing="1">AUTH RESULT</text>
  <rect x="196" y="216" width="120" height="28" fill="none" stroke="#ff4d4d" stroke-width="1"/>
  <text x="208" y="234" font-family="'Courier New', monospace" font-size="10.5" fill="#ff4d4d">SPF: fail</text>
  <rect x="326" y="216" width="120" height="28" fill="none" stroke="#ff4d4d" stroke-width="1"/>
  <text x="338" y="234" font-family="'Courier New', monospace" font-size="10.5" fill="#ff4d4d">DKIM: fail</text>
  <rect x="456" y="216" width="130" height="28" fill="none" stroke="#ff4d4d" stroke-width="1"/>
  <text x="468" y="234" font-family="'Courier New', monospace" font-size="10.5" fill="#ff4d4d">DMARC: fail</text>

  <rect x="196" y="268" width="580" height="1" fill="#173317"/>
  <text x="196" y="298" font-family="'Courier New', monospace" font-size="11" fill="#39ff14">&#9679; sender domain lookalike detected &#183; 0 bytes uploaded externally</text>


  <text x="486" y="480" text-anchor="middle" font-family="'Courier New', monospace" font-size="10.5" fill="#4a5a4a" letter-spacing="1.5">ILLUSTRATIVE PLACEHOLDER &#183; REAL CAPTURE PENDING</text>
</svg>
